<svg width="14" height="12" viewBox="0 0 14 12" fill="none" xmlns="http://www.w3.org/2000/svg">
<path d="M6.59964 1.85286L7 2.38799L7.40036 1.85286C7.98376 1.07306 8.91824 0.566666 9.96 0.566666C11.7282 0.566666 13.1667 2.00714 13.1667 3.79333C13.1667 4.53229 13.0489 5.21375 12.8443 5.84608L12.8432 5.84934C12.3524 7.40271 11.3443 8.66047 10.2483 9.60247C9.15 10.5464 7.99207 11.1483 7.25228 11.4L7.25227 11.4L7.24692 11.4018C7.20375 11.4171 7.11425 11.4333 7 11.4333C6.88575 11.4333 6.79625 11.4171 6.75308 11.4018L6.75309 11.4018L6.74772 11.4C6.00793 11.1483 4.85 10.5464 3.75173 9.60247C2.65566 8.66047 1.64763 7.40271 1.15676 5.84934L1.15677 5.84934L1.15572 5.84609C0.951141 5.21375 0.833333 4.53229 0.833333 3.79333C0.833333 2.00714 2.27181 0.566666 4.04 0.566666C5.08176 0.566666 6.01624 1.07306 6.59964 1.85286Z" fill="white" stroke="white"/>
</svg>
